<svg xmlns="http://www.w3.org/2000/svg"><symbol id="icon-arrow-left" viewBox="0 0 49 10">
    <title>
        Forma 1 copy
    </title>
    <path d="M8.638 9.02c-.656.63-1.529.98-2.457.98-.928 0-1.801-.35-2.457-.98L.311 5.72A.996.996 0 0 1 0 5c0-.27.112-.53.311-.72L3.724.98A3.529 3.529 0 0 1 6.181 0c.928 0 1.801.35 2.457.98a3.293 3.293 0 0 1 1.018 2.37c0 .21-.021.42-.06.62h25.523l2.438-2.88c.202-.24.504-.38.823-.38h8.559c.409 0 .783.23.958.58a1 1 0 0 1-.135 1.09L45.552 5l2.21 2.62a.975.975 0 0 1 .135 1.08c-.175.36-.549.59-.958.59H38.38c-.319 0-.621-.14-.823-.38l-2.438-2.89H9.594a3.29 3.29 0 0 1-.956 3zM7.136 2.43a1.348 1.348 0 0 0-.955-.38c-.361 0-.701.13-.956.38L2.563 5l2.662 2.57a1.395 1.395 0 0 0 1.911 0 1.28 1.28 0 0 0 0-1.85.99.99 0 0 1 0-1.44c.256-.25.396-.58.396-.93 0-.35-.14-.67-.396-.92zm31.749.33l-1.027 1.21h5.82l1.026-1.21zm0 4.48h5.82l-1.027-1.22h-5.82z"/>
</symbol><symbol id="icon-arrow-right" viewBox="0 0 48 10">
    <title>
        Forma 1
    </title>
    <path d="M39.36 9.02c.66.63 1.53.98 2.46.98.93 0 1.8-.35 2.46-.98l3.41-3.3a.992.992 0 0 0 0-1.44L44.28.98A3.54 3.54 0 0 0 41.82 0c-.93 0-1.8.35-2.46.98-.65.64-1.02 1.48-1.02 2.37 0 .21.02.42.06.62H12.88l-2.44-2.88c-.2-.24-.5-.38-.82-.38H1.06C.65.71.28.94.1 1.29c-.17.36-.12.78.14 1.09L2.45 5 .24 7.62c-.16.18-.24.41-.24.64 0 .15.03.3.1.44.18.36.55.59.96.59h8.56c.32 0 .62-.14.82-.38l2.44-2.89h25.53c-.21 1.06.11 2.18.95 3zm1.5-6.59c.26-.25.6-.38.96-.38s.7.13.95.38L45.44 5l-2.67 2.57c-.25.24-.59.38-.95.38s-.7-.14-.96-.38c-.52-.51-.52-1.34 0-1.85a.98.98 0 0 0 0-1.44 1.31 1.31 0 0 1-.39-.93c0-.35.14-.67.39-.92zm-31.74.33l1.02 1.21H4.32L3.3 2.76zm0 4.48H3.3l1.02-1.22h5.82z"/>
</symbol></svg>