<svg id="SvgjsSvg1011" xmlns="http://www.w3.org/2000/svg" version="1.1" xmlns:xlink="http://www.w3.org/1999/xlink" xmlns:svgjs="http://svgjs.com/svgjs" width="49" height="10" viewBox="0 0 49 10"><title>Forma 1 copy</title><desc>Created with Avocode.</desc><defs id="SvgjsDefs1012"></defs><path id="SvgjsPath1013" d="M425.638 2119.02C424.98199999999997 2119.65 424.109 2120 423.181 2120C422.253 2120 421.38 2119.65 420.724 2119.02L417.311 2115.72C417.11199999999997 2115.5299999999997 417 2115.27 417 2115C417 2114.73 417.112 2114.47 417.311 2114.28L420.724 2110.98C421.38 2110.35 422.253 2110 423.181 2110C424.109 2110 424.98199999999997 2110.35 425.638 2110.98C426.294 2111.62 426.65599999999995 2112.46 426.65599999999995 2113.35C426.65599999999995 2113.56 426.63499999999993 2113.77 426.59599999999995 2113.97L452.11899999999997 2113.97L454.55699999999996 2111.0899999999997C454.75899999999996 2110.85 455.061 2110.7099999999996 455.37999999999994 2110.7099999999996L463.93899999999996 2110.7099999999996C464.34799999999996 2110.7099999999996 464.722 2110.9399999999996 464.897 2111.2899999999995C465.073 2111.6499999999996 465.021 2112.0699999999997 464.762 2112.3799999999997L462.552 2114.9999999999995L464.762 2117.6199999999994C464.919 2117.7999999999993 465 2118.0299999999993 465 2118.2599999999993C465 2118.4099999999994 464.966 2118.5599999999995 464.897 2118.6999999999994C464.722 2119.0599999999995 464.348 2119.2899999999995 463.93899999999996 2119.2899999999995L455.37999999999994 2119.2899999999995C455.0609999999999 2119.2899999999995 454.75899999999996 2119.1499999999996 454.55699999999996 2118.9099999999994L452.11899999999997 2116.0199999999995L426.594 2116.0199999999995C426.798 2117.0799999999995 426.48 2118.1999999999994 425.638 2119.0199999999995ZM424.136 2112.43C423.88100000000003 2112.18 423.54200000000003 2112.0499999999997 423.18100000000004 2112.0499999999997C422.82000000000005 2112.0499999999997 422.48 2112.18 422.225 2112.43L419.56300000000005 2115L422.225 2117.57C422.48 2117.81 422.82000000000005 2117.9500000000003 423.18100000000004 2117.9500000000003C423.54200000000003 2117.9500000000003 423.88100000000003 2117.8100000000004 424.136 2117.57C424.663 2117.06 424.663 2116.23 424.136 2115.7200000000003C423.72200000000004 2115.32 423.72200000000004 2114.6800000000003 424.136 2114.28C424.392 2114.03 424.53200000000004 2113.7000000000003 424.53200000000004 2113.3500000000004C424.53200000000004 2113.0000000000005 424.39200000000005 2112.6800000000003 424.136 2112.4300000000003ZM455.885 2112.76L454.858 2113.9700000000003L460.678 2113.9700000000003L461.704 2112.76ZM455.885 2117.24L461.705 2117.24L460.678 2116.02L454.858 2116.02Z " fill="#6d6058" fill-opacity="1" transform="matrix(1,0,0,1,-417,-2110)"></path></svg>