<svg id="SvgjsSvg1008" xmlns="http://www.w3.org/2000/svg" version="1.1" xmlns:xlink="http://www.w3.org/1999/xlink" xmlns:svgjs="http://svgjs.com/svgjs" width="48" height="10" viewBox="0 0 48 10"><title>Forma 1</title><desc>Created with Avocode.</desc><defs id="SvgjsDefs1009"></defs><path id="SvgjsPath1010" d="M1493.36 2119.02C1494.02 2119.65 1494.8899999999999 2120 1495.82 2120C1496.75 2120 1497.62 2119.65 1498.28 2119.02L1501.69 2115.72C1501.89 2115.5299999999997 1502 2115.27 1502 2115C1502 2114.73 1501.89 2114.47 1501.69 2114.28L1498.28 2110.98C1497.62 2110.35 1496.75 2110 1495.82 2110C1494.8899999999999 2110 1494.02 2110.35 1493.36 2110.98C1492.7099999999998 2111.62 1492.34 2112.46 1492.34 2113.35C1492.34 2113.56 1492.36 2113.77 1492.3999999999999 2113.97L1466.8799999999999 2113.97L1464.4399999999998 2111.0899999999997C1464.2399999999998 2110.85 1463.9399999999998 2110.7099999999996 1463.62 2110.7099999999996L1455.06 2110.7099999999996C1454.6499999999999 2110.7099999999996 1454.28 2110.9399999999996 1454.1 2111.2899999999995C1453.9299999999998 2111.6499999999996 1453.98 2112.0699999999997 1454.24 2112.3799999999997L1456.45 2114.9999999999995L1454.24 2117.6199999999994C1454.08 2117.7999999999993 1454 2118.0299999999993 1454 2118.2599999999993C1454 2118.4099999999994 1454.03 2118.5599999999995 1454.1 2118.6999999999994C1454.28 2119.0599999999995 1454.6499999999999 2119.2899999999995 1455.06 2119.2899999999995L1463.62 2119.2899999999995C1463.9399999999998 2119.2899999999995 1464.2399999999998 2119.1499999999996 1464.4399999999998 2118.9099999999994L1466.8799999999999 2116.0199999999995L1492.4099999999999 2116.0199999999995C1492.1999999999998 2117.0799999999995 1492.5199999999998 2118.1999999999994 1493.36 2119.0199999999995ZM1494.86 2112.43C1495.12 2112.18 1495.4599999999998 2112.0499999999997 1495.82 2112.0499999999997C1496.1799999999998 2112.0499999999997 1496.52 2112.18 1496.77 2112.43L1499.44 2115L1496.77 2117.57C1496.52 2117.81 1496.18 2117.9500000000003 1495.82 2117.9500000000003C1495.46 2117.9500000000003 1495.12 2117.8100000000004 1494.86 2117.57C1494.34 2117.06 1494.34 2116.23 1494.86 2115.7200000000003C1495.28 2115.32 1495.28 2114.6800000000003 1494.86 2114.28C1494.61 2114.03 1494.4699999999998 2113.7000000000003 1494.4699999999998 2113.3500000000004C1494.4699999999998 2113.0000000000005 1494.61 2112.6800000000003 1494.86 2112.4300000000003ZM1463.12 2112.76L1464.1399999999999 2113.9700000000003L1458.32 2113.9700000000003L1457.3 2112.76ZM1463.12 2117.24L1457.3 2117.24L1458.32 2116.02L1464.1399999999999 2116.02Z " fill="#df1841" fill-opacity="1" transform="matrix(1,0,0,1,-1454,-2110)"></path></svg>